<?xml version="1.0" encoding="utf-8"?>
<!-- Generator: Adobe Illustrator 18.1.1, SVG Export Plug-In . SVG Version: 6.00 Build 0)  -->
<svg version="1.1" id="Layer_1" xmlns:sketch="http://www.bohemiancoding.com/sketch/ns"
	 xmlns="http://www.w3.org/2000/svg" xmlns:xlink="http://www.w3.org/1999/xlink" x="0px" y="0px" viewBox="359.7 25.5 811.5 45"
	 enable-background="new 359.7 25.5 811.5 45" xml:space="preserve">
<title>Group</title>
<desc>Created with Sketch.</desc>
<g id="Page-1" sketch:type="MSPage">
	<g id="Group" transform="translate(-1.000000, -3.000000)" sketch:type="MSLayerGroup">
		<g enable-background="new    ">
			<path fill="#3E3F3C" d="M369.8,40.2c2.3,0,4.1,0.6,5.5,1.7s2.4,2.6,2.9,4.5l-2.9,0.6c-0.5-1.3-1.2-2.4-2.1-3.2
				c-1-0.8-2.1-1.2-3.4-1.2c-1.8,0-3.3,0.7-4.5,2.2c-1.2,1.5-1.8,3.6-1.8,6.2c0,2.7,0.5,4.8,1.6,6.4c1.1,1.6,2.6,2.4,4.6,2.4
				c1.7,0,3-0.4,4-1.3s1.5-2.1,1.5-3.6h2.9c0,2.2-0.8,4-2.3,5.3c-1.5,1.3-3.6,2-6.3,2c-2.7,0-4.8-1-6.5-3.1c-1.6-2-2.5-4.8-2.5-8.2
				s0.9-6.1,2.6-8C365,41.2,367.2,40.2,369.8,40.2z"/>
			<path fill="#3E3F3C" d="M388.1,40.6h3.3l7.2,21.4h-2.8l-1.8-5.4h-8.5l-1.8,5.4h-2.8L388.1,40.6z M386.1,54.5h7.1l-3.5-10.5
				L386.1,54.5z"/>
			<path fill="#3E3F3C" d="M405.5,59.7h9.5V62h-12.2V40.6h2.7V59.7z"/>
			<path fill="#3E3F3C" d="M426.3,40.2c2.8,0,5,0.9,6.7,2.8c1.7,1.9,2.6,4.6,2.6,8.3c0,3.6-0.8,6.4-2.5,8.2s-3.9,2.8-6.7,2.8
				c-2.8,0-5-0.9-6.7-2.8s-2.5-4.6-2.5-8.2c0-3.6,0.8-6.4,2.5-8.2S423.5,40.2,426.3,40.2z M426.3,42.7c-2,0-3.6,0.7-4.7,2.2
				c-1.2,1.5-1.7,3.6-1.7,6.5s0.6,4.9,1.7,6.4c1.2,1.5,2.7,2.2,4.7,2.2c2,0,3.6-0.7,4.7-2.2c1.2-1.5,1.8-3.6,1.8-6.4s-0.6-5-1.8-6.5
				C429.9,43.4,428.3,42.7,426.3,42.7z"/>
			<path fill="#3E3F3C" d="M455.6,46.7c0,1.8-0.5,3.2-1.4,4.3c-0.9,1.1-2.3,1.8-4.2,2.1l6.1,8.9h-3.5l-5.5-8.7h-3.7V62h-2.7V40.6
				h7.4c2.4,0,4.2,0.6,5.5,1.7C455,43.5,455.6,45,455.6,46.7z M447.9,51.4c1.6,0,2.8-0.4,3.7-1.2c0.8-0.8,1.2-1.8,1.2-3.1
				c0-1.3-0.4-2.3-1.2-3.1c-0.8-0.8-2-1.1-3.5-1.1h-4.8v8.5H447.9z"/>
			<path fill="#3E3F3C" d="M461.5,40.6h2.7V62h-2.7V40.6z"/>
			<path fill="#3E3F3C" d="M471,40.6h13.2v2.3h-10.5v7.2h9.9v2.3h-9.9v7.3h10.5V62H471V40.6z"/>
			<path fill="#3E3F3C" d="M501.6,45.8c-0.4-2.1-1.9-3.1-4.6-3.1c-1.4,0-2.5,0.3-3.3,0.9c-0.8,0.6-1.2,1.4-1.2,2.2
				c0,0.9,0.2,1.5,0.7,2c0.5,0.5,1.2,0.8,2.3,1.2l4.5,1.5c1.5,0.5,2.7,1.2,3.6,2.1c0.9,0.9,1.3,2.2,1.3,3.8s-0.7,3-2.1,4.1
				c-1.4,1.1-3.3,1.7-5.6,1.7s-4.3-0.6-5.8-1.8c-1.5-1.2-2.3-2.9-2.3-5h2.6c0,1.4,0.5,2.5,1.5,3.2c1,0.7,2.3,1.1,3.8,1.1
				s2.8-0.3,3.7-1c0.9-0.7,1.4-1.5,1.4-2.4s-0.3-1.7-0.8-2.2s-1.4-1-2.5-1.4l-3.8-1.4c-1.8-0.6-3.1-1.3-4-2.1
				c-0.9-0.8-1.4-2-1.4-3.6c0-1.6,0.6-2.9,1.9-3.9c1.3-1.1,3-1.6,5.3-1.6s4,0.5,5.3,1.5c1.2,1,1.9,2.4,2.1,4.1H501.6z"/>
		</g>
		<text transform="matrix(1 0 0 1 507.3065 62)" fill="#3E3F3C" font-family="'Karla-Regular'" font-size="34"> </text>
		<g enable-background="new    ">
			<path fill="#3E3F3C" d="M528.8,40.6h2.7V62h-2.7V40.6z"/>
			<path fill="#3E3F3C" d="M541.5,40.6l10.6,17.2V40.6h2.7V62h-3L541,44.6V62h-2.7V40.6H541.5z"/>
		</g>
		<g enable-background="new    ">
			<path fill="#3E3F3C" d="M972.1,59.7h9.5V62h-12.2V40.6h2.7V59.7z"/>
			<path fill="#3E3F3C" d="M992.9,40.2c2.8,0,5,0.9,6.7,2.8s2.6,4.6,2.6,8.3c0,3.6-0.8,6.4-2.6,8.2c-1.7,1.9-3.9,2.8-6.7,2.8
				s-5-0.9-6.7-2.8s-2.5-4.6-2.5-8.2c0-3.6,0.8-6.4,2.5-8.2S990.1,40.2,992.9,40.2z M992.9,42.7c-2,0-3.6,0.7-4.7,2.2
				c-1.2,1.5-1.7,3.6-1.7,6.5s0.6,4.9,1.7,6.4c1.2,1.5,2.7,2.2,4.7,2.2c2,0,3.6-0.7,4.7-2.2c1.2-1.5,1.8-3.6,1.8-6.4s-0.6-5-1.8-6.5
				C996.5,43.4,994.9,42.7,992.9,42.7z"/>
			<path fill="#3E3F3C" d="M1018.7,45.8c-0.4-2.1-1.9-3.1-4.6-3.1c-1.4,0-2.5,0.3-3.3,0.9c-0.8,0.6-1.2,1.4-1.2,2.2
				c0,0.9,0.2,1.5,0.7,2c0.5,0.5,1.2,0.8,2.3,1.2l4.5,1.5c1.5,0.5,2.7,1.2,3.6,2.1c0.9,0.9,1.3,2.2,1.3,3.8s-0.7,3-2.1,4.1
				c-1.4,1.1-3.3,1.7-5.6,1.7s-4.3-0.6-5.8-1.8c-1.5-1.2-2.3-2.9-2.3-5h2.6c0,1.4,0.5,2.5,1.5,3.2s2.3,1.1,3.8,1.1s2.8-0.3,3.7-1
				c0.9-0.7,1.4-1.5,1.4-2.4s-0.3-1.7-0.8-2.2c-0.6-0.5-1.4-1-2.5-1.4l-3.8-1.4c-1.8-0.6-3.1-1.3-4-2.1c-0.9-0.8-1.4-2-1.4-3.6
				c0-1.6,0.6-2.9,1.9-3.9c1.3-1.1,3-1.6,5.3-1.6c2.3,0,4,0.5,5.3,1.5c1.2,1,1.9,2.4,2.1,4.1H1018.7z"/>
			<path fill="#3E3F3C" d="M1027.8,40.6h13.2v2.3h-10.5v7.2h9.9v2.3h-9.9v7.3h10.5V62h-13.2V40.6z"/>
			<path fill="#3E3F3C" d="M1055.1,40.6l5.2,17.8l5.3-15.6h1.8l5.2,15.6l6-17.8h3L1074,62h-2.8l-4.7-13.7l-4.8,13.7h-2.8l-6.8-21.4
				H1055.1z"/>
			<path fill="#3E3F3C" d="M1085.5,40.6h13.2v2.3h-10.5v7.2h9.9v2.3h-9.9v7.3h10.5V62h-13.2V40.6z"/>
			<path fill="#3E3F3C" d="M1104.6,40.6h2.7V62h-2.7V40.6z"/>
			<path fill="#3E3F3C" d="M1127.4,58.3c-1,2.7-2.8,4-5.5,4c-2.7,0-5-1-6.7-3c-1.8-2-2.6-4.7-2.6-8.1c0-3.4,1-6.1,2.9-8.1
				c1.9-2,4.3-3,7.2-3c1.7,0,3.1,0.3,4.4,1s2.3,1.8,3.2,3.3l-2.6,0.9c-1.5-1.8-3.2-2.8-5.2-2.8s-3.6,0.8-5,2.4
				c-1.4,1.6-2.1,3.7-2.1,6.3c0,2.6,0.6,4.6,1.8,6.2c1.2,1.6,2.8,2.3,4.8,2.3c1.6,0,2.9-0.5,3.9-1.6c1-1.1,1.5-2.7,1.5-4.8v-0.1
				l-5.4-0.2v-1.8h8V62h-2.2L1127.4,58.3z"/>
			<path fill="#3E3F3C" d="M1138.8,40.6V50h10.5v-9.4h2.7V62h-2.7v-9.7h-10.5V62h-2.7V40.6H1138.8z"/>
			<path fill="#3E3F3C" d="M1155.6,40.6h16.6v2.3h-7V62h-2.7V42.9h-7V40.6z"/>
		</g>
		<path fill="#DB4646" d="M565.6,73.5H516c-4.1,0-7.5-3.4-7.5-7.5V36c0-4.1,3.4-7.5,7.5-7.5h49.6c4.1,0,7.5,3.4,7.5,7.5v30
			C573.1,70.1,569.8,73.5,565.6,73.5z M516,33.5c-1.4,0-2.5,1.1-2.5,2.5v30c0,1.4,1.1,2.5,2.5,2.5h49.6c1.4,0,2.5-1.1,2.5-2.5V36
			c0-1.4-1.1-2.5-2.5-2.5H516z"/>
		<g>
			<path id="Rectangle-5-Copy-3_1_" sketch:type="MSShapeGroup" fill="#DB4646" d="M805,31h71.7c2.8,0,5,2.2,5,5v30c0,2.8-2.2,5-5,5
				H805c-2.8,0-5-2.2-5-5V36C800,33.2,802.2,31,805,31z"/>
			<path fill="#DB4646" d="M876.7,73.5H805c-4.1,0-7.5-3.4-7.5-7.5V36c0-4.1,3.4-7.5,7.5-7.5h71.7c4.1,0,7.5,3.4,7.5,7.5v30
				C884.2,70.1,880.8,73.5,876.7,73.5z M805,33.5c-1.4,0-2.5,1.1-2.5,2.5v30c0,1.4,1.1,2.5,2.5,2.5h71.7c1.4,0,2.5-1.1,2.5-2.5V36
				c0-1.4-1.1-2.5-2.5-2.5H805z"/>
		</g>
		<g enable-background="new    ">
			<path fill="#3E3F3C" d="M656.8,40.2c2.3,0,4.1,0.6,5.5,1.7s2.4,2.6,2.9,4.5l-2.9,0.6c-0.5-1.3-1.2-2.4-2.1-3.2
				c-1-0.8-2.1-1.2-3.4-1.2c-1.8,0-3.3,0.7-4.5,2.2c-1.2,1.5-1.8,3.6-1.8,6.2c0,2.7,0.5,4.8,1.6,6.4c1.1,1.6,2.6,2.4,4.6,2.4
				c1.7,0,3-0.4,4-1.3s1.5-2.1,1.5-3.6h2.9c0,2.2-0.8,4-2.3,5.3c-1.5,1.3-3.6,2-6.3,2c-2.7,0-4.8-1-6.5-3.1c-1.6-2-2.5-4.8-2.5-8.2
				s0.9-6.1,2.6-8C652,41.2,654.2,40.2,656.8,40.2z"/>
			<path fill="#3E3F3C" d="M675.1,40.6h3.3l7.2,21.4h-2.8l-1.8-5.4h-8.5l-1.8,5.4h-2.8L675.1,40.6z M673.1,54.5h7.1l-3.5-10.5
				L673.1,54.5z"/>
			<path fill="#3E3F3C" d="M692.5,59.7h9.5V62h-12.2V40.6h2.7V59.7z"/>
			<path fill="#3E3F3C" d="M713.3,40.2c2.8,0,5,0.9,6.7,2.8c1.7,1.9,2.6,4.6,2.6,8.3c0,3.6-0.8,6.4-2.5,8.2s-3.9,2.8-6.7,2.8
				c-2.8,0-5-0.9-6.7-2.8s-2.5-4.6-2.5-8.2c0-3.6,0.8-6.4,2.5-8.2S710.5,40.2,713.3,40.2z M713.3,42.7c-2,0-3.6,0.7-4.7,2.2
				c-1.2,1.5-1.7,3.6-1.7,6.5s0.6,4.9,1.7,6.4c1.2,1.5,2.7,2.2,4.7,2.2c2,0,3.6-0.7,4.7-2.2c1.2-1.5,1.8-3.6,1.8-6.4s-0.6-5-1.8-6.5
				C716.9,43.4,715.3,42.7,713.3,42.7z"/>
			<path fill="#3E3F3C" d="M742.6,46.7c0,1.8-0.5,3.2-1.4,4.3c-0.9,1.1-2.3,1.8-4.2,2.1l6.1,8.9h-3.5l-5.5-8.7h-3.7V62h-2.7V40.6
				h7.4c2.4,0,4.2,0.6,5.5,1.7C742,43.5,742.6,45,742.6,46.7z M734.9,51.4c1.6,0,2.8-0.4,3.7-1.2c0.8-0.8,1.2-1.8,1.2-3.1
				c0-1.3-0.4-2.3-1.2-3.1c-0.8-0.8-2-1.1-3.5-1.1h-4.8v8.5H734.9z"/>
			<path fill="#3E3F3C" d="M748.5,40.6h2.7V62h-2.7V40.6z"/>
			<path fill="#3E3F3C" d="M758,40.6h13.2v2.3h-10.5v7.2h9.9v2.3h-9.9v7.3h10.5V62H758V40.6z"/>
			<path fill="#3E3F3C" d="M788.6,45.8c-0.4-2.1-1.9-3.1-4.6-3.1c-1.4,0-2.5,0.3-3.3,0.9c-0.8,0.6-1.2,1.4-1.2,2.2
				c0,0.9,0.2,1.5,0.7,2c0.5,0.5,1.2,0.8,2.3,1.2l4.5,1.5c1.5,0.5,2.7,1.2,3.6,2.1c0.9,0.9,1.3,2.2,1.3,3.8s-0.7,3-2.1,4.1
				c-1.4,1.1-3.3,1.7-5.6,1.7s-4.3-0.6-5.8-1.8c-1.5-1.2-2.3-2.9-2.3-5h2.6c0,1.4,0.5,2.5,1.5,3.2c1,0.7,2.3,1.1,3.8,1.1
				s2.8-0.3,3.7-1c0.9-0.7,1.4-1.5,1.4-2.4s-0.3-1.7-0.8-2.2s-1.4-1-2.5-1.4l-3.8-1.4c-1.8-0.6-3.1-1.3-4-2.1
				c-0.9-0.8-1.4-2-1.4-3.6c0-1.6,0.6-2.9,1.9-3.9c1.3-1.1,3-1.6,5.3-1.6s4,0.5,5.3,1.5c1.2,1,1.9,2.4,2.1,4.1H788.6z"/>
		</g>
		<g enable-background="new    ">
			<path fill="#FFFFFF" d="M823.4,40.2c2.8,0,5,0.9,6.7,2.8c1.7,1.9,2.6,4.6,2.6,8.3c0,3.6-0.8,6.4-2.5,8.2s-3.9,2.8-6.7,2.8
				s-5-0.9-6.7-2.8s-2.5-4.6-2.5-8.2c0-3.6,0.8-6.4,2.5-8.2S820.6,40.2,823.4,40.2z M823.4,42.7c-2,0-3.6,0.7-4.7,2.2
				c-1.2,1.5-1.7,3.6-1.7,6.5s0.6,4.9,1.7,6.4c1.2,1.5,2.7,2.2,4.7,2.2s3.6-0.7,4.7-2.2c1.2-1.5,1.8-3.6,1.8-6.4s-0.6-5-1.8-6.5
				C827,43.4,825.4,42.7,823.4,42.7z"/>
			<path fill="#FFFFFF" d="M840,40.6v13.7c0,2,0.5,3.4,1.5,4.3c1,0.9,2.3,1.3,3.9,1.3s2.9-0.4,3.9-1.3c1-0.9,1.5-2.3,1.5-4.3V40.6
				h2.7v13.7c0,2.7-0.7,4.7-2.2,6.1c-1.5,1.4-3.5,2-5.9,2c-2.5,0-4.5-0.7-5.9-2s-2.2-3.4-2.2-6.1V40.6H840z"/>
			<path fill="#FFFFFF" d="M856.8,40.6h16.6v2.3h-7V62h-2.7V42.9h-7V40.6z"/>
		</g>
		<path id="Fill-6-Copy" sketch:type="MSShapeGroup" fill="#DB4646" d="M602.2,50.9l-2.3,2.3L618,71.3l2.3-2.3l-15.9-15.9l15.8-15.8
			l-2.3-2.3L602.2,50.9"/>
		<rect id="Rectangle-39-Copy" x="910" y="54" sketch:type="MSShapeGroup" fill="#DB4646" width="30.3" height="3.6">
		</rect>
		<rect id="Rectangle-39-Copy-2" x="910" y="45" sketch:type="MSShapeGroup" fill="#DB4646" width="30.3" height="3.6">
		</rect>
	</g>
</g>
</svg>
