<?xml version="1.0" encoding="UTF-8" standalone="no"?>
<svg width="380px" height="339px" viewBox="0 0 380 339" version="1.1" xmlns="http://www.w3.org/2000/svg" xmlns:xlink="http://www.w3.org/1999/xlink" xmlns:sketch="http://www.bohemiancoding.com/sketch/ns">
    <!-- Generator: Sketch 3.2.2 (9983) - http://www.bohemiancoding.com/sketch -->
    <title>Group</title>
    <desc>Created with Sketch.</desc>
    <defs></defs>
    <g id="Page-1" stroke="none" stroke-width="1" fill="none" fill-rule="evenodd" sketch:type="MSPage">
        <g id="Group" sketch:type="MSLayerGroup" transform="translate(3.000000, 3.000000)">
            <g id="xg0zPq_2_" transform="translate(139.000000, 23.000000)" fill="#DF4141" sketch:type="MSShapeGroup">
                <g id="Group">
                    <path d="M48.213,11.586 C46.986,15.637 47.76,19.039 51.14,21.51 C54.069,23.653 57.295,23.76 60.332,21.818 C64.088,19.416 64.991,15.853 63.73,11.574 L69.876,11.574 C73.823,11.574 77.772,11.576 81.722,11.574 C84.187,11.574 85.765,13.044 85.774,15.494 C85.798,23.694 85.784,31.894 85.779,40.094 C85.779,40.287 85.733,40.482 85.694,40.79 C85.146,40.551 84.672,40.321 84.182,40.13 C74.193,36.197 64.49,36.702 55.125,42.057 C54.271,42.544 53.444,42.812 52.465,42.751 C51.527,42.691 50.581,42.739 49.408,42.739 C50.008,45.302 49.116,47.249 46.879,48.66 L46.879,42.818 L39.202,42.818 L39.202,50.433 L45.592,50.433 C44.986,51.361 44.51,52.158 43.95,52.89 C43.818,53.064 43.405,53.072 43.12,53.077 C41.845,53.095 40.565,53.087 39.216,53.087 L39.216,60.766 C39.555,60.802 39.907,60.838 40.46,60.895 C39.917,61.791 40.43,62.987 39.261,63.597 C39.125,63.665 39.145,64.095 39.149,64.354 C39.201,67.289 39.306,70.221 39.311,73.154 C39.316,75.575 39.203,77.993 39.145,80.414 C39.136,80.775 39.144,81.137 39.144,81.448 C39.972,81.585 40.847,81.486 41.329,81.876 C41.844,82.293 41.94,83.194 42.299,83.84 C43.149,85.371 44.039,86.874 44.924,88.387 C45.085,88.665 45.274,88.93 45.573,89.387 L40.261,89.387 C28.281,89.387 16.301,89.382 4.32,89.389 C1.767,89.391 0.248,87.984 0.242,85.434 C0.224,75.749 0.238,66.065 0.24,56.378 C0.24,45.917 0.242,35.455 0.246,24.993 C0.246,21.755 0.227,18.514 0.264,15.275 C0.287,13.199 1.744,11.635 3.812,11.616 C9.818,11.559 15.825,11.59 21.832,11.59 C21.962,11.59 22.089,11.631 22.259,11.659 C21.014,15.876 21.97,19.389 25.691,21.844 C28.566,23.738 32.267,23.501 34.994,21.473 C37.23,19.808 39.363,16.526 37.799,11.588 L42.914,11.588 C44.629,11.586 46.349,11.586 48.213,11.586 L48.213,11.586 Z M77.947,27.231 L8.109,27.231 L8.109,34.827 L77.947,34.827 L77.947,27.231 L77.947,27.231 Z M8.051,73.917 C8.051,76.333 8.033,78.686 8.081,81.036 C8.088,81.228 8.552,81.564 8.807,81.569 C10.866,81.612 12.922,81.575 14.978,81.605 C15.609,81.615 15.794,81.366 15.786,80.772 C15.765,78.918 15.784,77.062 15.775,75.209 C15.774,74.787 15.725,74.368 15.696,73.917 L8.051,73.917 L8.051,73.917 Z M15.707,53.167 L8.088,53.167 L8.088,60.74 L15.707,60.74 L15.707,53.167 L15.707,53.167 Z M8.083,63.488 L8.083,71.122 L15.705,71.122 L15.705,63.488 L8.083,63.488 L8.083,63.488 Z M26.082,60.767 L26.082,53.143 L18.5,53.143 L18.5,60.767 L26.082,60.767 L26.082,60.767 Z M36.454,60.78 L36.454,53.157 L28.89,53.157 L28.89,60.78 L36.454,60.78 L36.454,60.78 Z M36.473,71.137 L36.473,63.506 L28.858,63.506 L28.858,71.137 L36.473,71.137 L36.473,71.137 Z M36.459,50.431 L36.459,42.807 L28.871,42.807 L28.871,50.431 L36.459,50.431 L36.459,50.431 Z M26.084,81.539 L26.084,73.909 L18.5,73.909 L18.5,81.539 L26.084,81.539 L26.084,81.539 Z M28.868,73.907 L28.868,81.507 L36.474,81.507 L36.474,73.907 L28.868,73.907 L28.868,73.907 Z M18.51,63.507 L18.51,71.092 L26.092,71.092 L26.092,63.507 L18.51,63.507 L18.51,63.507 Z" id="Shape"></path>
                    <path d="M71.637,42.735 C86.403,42.6 99.562,55.17 98.707,71.437 C97.963,85.569 86.23,97.31 71.248,97.149 C56.053,96.986 44.06,84.706 44.288,69.486 C44.511,54.502 56.941,42.46 71.637,42.735 L71.637,42.735 Z M72.783,66.027 L72.783,64.774 C72.781,60.897 72.787,57.021 72.771,53.144 C72.762,51.514 71.659,50.41 70.138,50.45 C68.665,50.488 67.671,51.583 67.671,53.194 C67.671,58.89 67.677,64.589 67.687,70.285 C67.687,70.543 67.725,70.799 67.748,71.092 C68.007,71.107 68.203,71.128 68.4,71.128 C74.167,71.131 79.929,71.136 85.694,71.125 C87.233,71.124 88.374,69.997 88.359,68.558 C88.339,67.107 87.218,66.037 85.656,66.024 C83.904,66.008 82.15,66.027 80.396,66.027 C77.908,66.028 75.42,66.027 72.783,66.027 L72.783,66.027 Z" id="Shape"></path>
                    <path d="M52.088,9.935 C52.088,8.118 52.036,6.295 52.101,4.48 C52.171,2.514 53.427,1.254 55.457,0.966 C57.346,0.696 59.029,1.642 59.628,3.373 C59.799,3.869 59.861,4.426 59.861,4.957 C59.877,8.425 59.879,11.893 59.843,15.361 C59.828,17.166 58.874,18.447 57.281,18.941 C55.489,19.497 53.655,18.962 52.723,17.463 C52.356,16.869 52.149,16.093 52.116,15.388 C52.033,13.573 52.089,11.752 52.088,9.935 L52.088,9.935 Z" id="Shape"></path>
                    <path d="M33.938,9.958 C33.938,11.816 33.995,13.674 33.925,15.526 C33.795,19.086 29.85,19.866 27.785,18.479 C26.803,17.82 26.199,16.899 26.191,15.7 C26.17,11.887 26.144,8.074 26.205,4.262 C26.237,2.354 27.883,0.975 29.968,0.92 C32.055,0.864 33.791,2.244 33.889,4.191 C33.979,6.109 33.908,8.037 33.908,9.958 L33.938,9.958 L33.938,9.958 Z" id="Shape"></path>
                </g>
            </g>
            <circle id="Oval" stroke="#000000" stroke-width="5" sketch:type="MSShapeGroup" cx="184.294" cy="73.48" r="73.048"></circle>
            <g id="egCf8t_2_" transform="translate(249.000000, 217.000000)" stroke="#DF4141" fill="#DF4141" sketch:type="MSShapeGroup">
                <path d="M20.396,63.479 C5.321,62.954 -1.414,47.659 0.267,35.231 C0.712,31.937 1.71,28.595 3.113,25.581 C5.996,19.386 10.808,15.241 17.857,13.764 C17.707,10.326 17.549,6.899 17.407,3.468 C17.289,0.662 17.731,0.194 20.551,0.194 C46.837,0.191 73.125,0.188 99.413,0.216 C100.17,0.219 100.926,0.585 101.684,0.782 C101.364,1.511 101.151,2.313 100.706,2.956 C98.779,5.731 96.645,8.375 94.867,11.241 C93.885,12.833 93.021,14.723 92.844,16.55 C91.049,35.089 89.405,53.644 87.717,72.194 C87.66,72.812 87.593,73.428 87.518,74.046 C87.17,76.872 86.741,77.248 83.823,77.249 C64.018,77.25 44.218,77.251 24.415,77.248 C21.595,77.248 21.069,76.773 20.902,73.905 C20.699,70.467 20.565,67.027 20.396,63.479 L20.396,63.479 Z M24.954,23.528 L27.414,23.528 C35.076,23.528 42.737,23.528 50.398,23.529 C50.949,23.529 51.61,23.357 52.029,23.594 C52.717,23.985 53.248,24.652 53.843,25.199 C53.272,25.767 52.781,26.48 52.102,26.855 C51.622,27.12 50.887,26.938 50.269,26.938 C42.747,26.94 35.223,26.937 27.701,26.943 C26.911,26.944 26.121,27.009 25.17,27.052 C25.317,29.305 25.447,31.271 25.588,33.412 L28.088,33.412 C35.611,33.412 43.134,33.407 50.656,33.419 C51.34,33.42 52.117,33.333 52.681,33.621 C53.189,33.881 53.771,34.601 53.759,35.108 C53.745,35.62 53.144,36.315 52.621,36.564 C52.048,36.839 51.274,36.73 50.587,36.731 C43.133,36.739 35.68,36.731 28.226,36.743 C27.442,36.744 26.656,36.841 25.747,36.9 C25.922,39.136 26.075,41.094 26.244,43.251 L28.665,43.251 C35.98,43.251 43.297,43.249 50.612,43.255 C51.233,43.255 51.956,43.105 52.445,43.369 C53.017,43.679 53.741,44.366 53.742,44.892 C53.744,45.432 53.053,46.143 52.484,46.467 C52.007,46.738 51.273,46.582 50.653,46.583 C43.338,46.589 36.021,46.583 28.705,46.592 C27.986,46.593 27.266,46.651 26.615,46.681 C26.615,48.4 26.643,49.846 26.607,51.291 C26.571,52.701 27.174,53.169 28.602,53.151 C34.261,53.078 39.919,53.122 45.581,53.124 C47.649,53.124 49.734,52.994 51.784,53.2 C52.513,53.273 53.159,54.164 53.845,54.681 C53.15,55.273 52.508,55.949 51.74,56.424 C51.387,56.639 50.796,56.463 50.312,56.463 L29.815,56.463 L26.953,56.463 C27.126,58.734 27.278,60.746 27.447,62.96 L30.073,62.96 C36.906,62.96 43.739,62.957 50.574,62.965 C51.26,62.965 52.031,62.856 52.61,63.123 C53.13,63.365 53.748,64.051 53.757,64.552 C53.765,65.058 53.183,65.782 52.672,66.036 C52.105,66.317 51.326,66.212 50.642,66.213 C43.808,66.223 36.975,66.214 30.142,66.226 C29.355,66.227 28.568,66.313 27.815,66.357 C27.55,70.707 27.836,71.012 31.896,71.012 C43.698,71.014 55.5,71.014 67.302,71.014 C71.304,71.014 75.306,70.989 79.309,71.019 C81.041,71.034 82.08,70.374 82.162,68.53 C82.193,67.843 82.338,67.162 82.4,66.475 C83.752,51.776 85.089,37.077 86.455,22.378 C86.744,19.272 86.414,18.847 83.337,18.846 C66.013,18.843 48.691,18.844 31.367,18.844 C29.847,18.844 28.33,18.846 26.812,18.85 C25.442,18.857 24.781,19.55 24.833,20.918 C24.865,21.671 24.904,22.418 24.954,23.528 L24.954,23.528 Z M18.232,20.722 C16.383,21.976 14.772,22.759 13.559,23.948 C10.253,27.186 8.863,31.361 8.452,35.862 C7.928,41.62 9.042,47.005 12.68,51.647 C14.461,53.92 16.682,55.575 20.017,55.84 C19.428,44.236 18.848,32.838 18.232,20.722 L18.232,20.722 Z" id="Shape"></path>
            </g>
            <circle id="Oval" stroke="#000000" stroke-width="5" sketch:type="MSShapeGroup" cx="301.459" cy="250.518" r="73.047"></circle>
            <g transform="translate(29.000000, 208.000000)" id="Shape" stroke="#DF4141" fill="#DF4141" sketch:type="MSShapeGroup">
                <path d="M57.695,18.062 C56.638,22.687 55.582,27.313 54.526,31.941 C54.109,33.753 53.71,35.567 53.252,37.372 C53.193,37.607 52.84,37.934 52.618,37.938 C50.01,37.975 47.4,37.959 44.791,37.954 C44.719,37.954 44.641,37.908 44.455,37.848 C48.848,31.202 53.211,24.603 57.574,18.002 C57.615,18.021 57.654,18.041 57.695,18.062 L57.695,18.062 Z" stroke-width="2"></path>
                <path d="M88.342,17.354 C88.332,8.86 82.447,2.108 74.031,0.845 C73.869,0.819 73.718,0.729 73.562,0.668 L15.042,0.668 C13.724,1.013 12.356,1.23 11.095,1.724 C5.046,4.083 1.499,8.51 0.423,14.918 C0.391,15.106 0.304,15.286 0.241,15.472 L0.241,73.989 C0.594,75.338 0.848,76.721 1.315,78.029 C3.552,84.262 9.604,88.662 16.238,88.743 C23.808,88.834 31.383,88.773 38.954,88.774 L41.338,88.774 L41.338,63.664 C41.338,62.028 42.662,60.703 44.298,60.703 C45.933,60.703 47.257,62.028 47.257,63.664 L47.257,88.773 C55.39,88.776 63.52,88.781 71.652,88.771 C78.964,88.759 85.079,84.475 87.427,77.557 C88.016,75.827 88.301,73.912 88.308,72.081 C88.372,53.839 88.359,35.596 88.342,17.354 L88.342,17.354 Z M69.096,31.546 C66.644,34.614 64.18,37.673 61.745,40.755 C61.404,41.185 61.06,41.344 60.517,41.343 C49.706,41.328 38.896,41.336 28.083,41.311 C27.712,41.311 27.211,41.139 26.99,40.868 C22.649,35.493 18.344,30.091 14.028,24.693 C13.958,24.605 13.909,24.503 13.853,24.416 C28.75,6.322 59.897,6.359 74.768,24.442 C72.885,26.804 70.992,29.178 69.096,31.546 L69.096,31.546 Z"></path>
            </g>
            <circle id="Oval" stroke="#000000" stroke-width="5" sketch:type="MSShapeGroup" cx="73.299" cy="251.527" r="73.047"></circle>
            <path d="M304.318,155.03 L321.538,162.426 C315.551,130.221 298.291,101.976 274.013,81.938" id="Shape" stroke="#000000" stroke-width="5" sketch:type="MSShapeGroup"></path>
            <path d="M331.438,146.527 L321.538,162.427" id="Shape" stroke="#000000" stroke-width="5" sketch:type="MSShapeGroup"></path>
            <path d="M154.582,307.168 L139.106,317.734 C169.501,329.952 202.595,330.529 232.529,320.783" id="Shape" stroke="#000000" stroke-width="5" sketch:type="MSShapeGroup"></path>
            <path d="M147.219,334.616 L139.106,317.734" id="Shape" stroke="#000000" stroke-width="5" sketch:type="MSShapeGroup"></path>
            <path d="M97.072,101.949 L94.358,83.408 C70.053,105.372 55.027,134.864 50.667,166.041" id="Shape" stroke="#000000" stroke-width="5" sketch:type="MSShapeGroup"></path>
            <path d="M75.63,83.299 L94.358,83.408" id="Shape" stroke="#000000" stroke-width="5" sketch:type="MSShapeGroup"></path>
        </g>
    </g>
</svg>