<?xml version="1.0" encoding="UTF-8" standalone="no"?>
<svg width="133px" height="53px" viewBox="0 0 133 53" version="1.1" xmlns="http://www.w3.org/2000/svg" xmlns:xlink="http://www.w3.org/1999/xlink" xmlns:sketch="http://www.bohemiancoding.com/sketch/ns">
    <!-- Generator: Sketch 3.2.2 (9983) - http://www.bohemiancoding.com/sketch -->
    <title>Group</title>
    <desc>Created with Sketch.</desc>
    <defs></defs>
    <g id="Home" stroke="none" stroke-width="1" fill="none" fill-rule="evenodd" sketch:type="MSPage">
        <g id="Artboard-1" sketch:type="MSArtboardGroup" transform="translate(-139.000000, -27.000000)">
            <g id="Group" sketch:type="MSLayerGroup" transform="translate(140.000000, 27.000000)">
                <path d="M12.3419746,25.1037791 L12.3419746,34.2010712 C12.3417276,36.7538298 12.3140623,39.3070828 12.3548191,41.8593471 C12.3721099,42.9231613 11.9598487,43.3235746 10.8949846,43.3102275 C7.85106908,43.272905 8.13858979,43.5045021 8.13858979,40.6074375 C8.13933082,30.478463 8.1590917,20.3494886 8.11314767,10.2205142 C8.10771343,8.96934612 8.47526567,8.5538555 9.72439988,8.60699677 C11.6454038,8.68856245 11.6575073,8.61663635 12.1774653,10.4587849 C14.3615358,18.1956603 16.5389371,25.9345132 18.7230076,33.6713887 C18.7966168,33.9316573 18.7252307,34.2715143 19.2115952,34.4620814 C19.8888991,32.0655334 20.564721,29.6838156 21.2348616,27.3011091 C22.8789663,21.4550743 24.5183777,15.6078038 26.1649525,9.76251057 C26.4458039,8.76493759 29.026821,8.10301974 29.7535271,8.83686369 C30.0141236,9.10009838 29.9516298,9.45206665 29.9521239,9.77388033 C29.955582,20.5618066 29.9496537,31.3497328 29.9652154,42.1374119 C29.9666975,42.9973119 29.6112488,43.3062728 28.7862323,43.3018237 C25.3325257,43.2830389 25.9105312,43.5252643 25.8952166,40.5384774 C25.8707625,35.8034661 25.8885473,31.0684548 25.8885473,26.3331963 L25.8885473,24.9881041 C25.2922629,25.2916273 25.3322787,25.7933798 25.227052,26.1614141 C23.732389,31.4078175 22.2384669,36.6549624 20.8050626,41.9186676 C20.5484183,42.8608747 20.1561649,43.3003407 19.1414441,43.3206086 C18.0827553,43.3416179 17.5919446,42.915499 17.3189975,41.9196562 C15.8539758,36.5790816 14.343751,31.250371 12.8448888,25.9191887 C12.7623871,25.6257994 12.6393757,25.3437799 12.5351371,25.0563227 C12.4706673,25.0721415 12.4061974,25.0879603 12.3419746,25.1037791" id="Fill-1" fill="#3E3F3C" sketch:type="MSShapeGroup"></path>
                <path d="M73.7082191,25.7801688 C73.7082191,20.5080599 73.7329202,15.2357038 73.6874702,9.96408915 C73.6783308,8.89285989 74.000186,8.49071637 75.0904922,8.52680301 C77.1051132,8.5932914 79.1249215,8.50307481 81.1400365,8.5656085 C84.8980606,8.6817778 87.6272842,11.1042785 88.2934727,14.8118094 C88.4686034,15.7871372 88.5592564,16.763948 88.5570333,17.7546002 C88.5444358,23.5205523 88.572101,29.2872459 88.5212167,35.0527036 C88.4863882,39.0036957 86.1978321,42.1607818 82.824404,42.9099502 C80.1062958,43.5140306 77.3293991,43.1422888 74.5789326,43.1828245 C73.729956,43.1954301 73.7025378,42.5011331 73.7040199,41.8434172 C73.7119242,37.848429 73.7082191,33.8531937 73.7082191,29.8579584 L73.7082191,25.7801688 L73.7082191,25.7801688 Z M77.9108628,25.9114154 C77.9108628,29.946692 77.9054286,33.9819686 77.9190142,38.0172453 C77.9202492,38.4349604 77.7317799,38.9423978 78.3058333,39.2014306 C80.3715856,40.1347398 83.3147206,38.8586076 84.0142556,36.707251 C84.2573143,35.9603071 84.3662461,35.1923539 84.3647641,34.4001781 C84.3546366,28.7175219 84.3701983,23.0351129 84.3558717,17.3527039 C84.3467323,13.6933709 82.8945551,12.3146637 79.25065,12.3492674 C78.2816262,12.3584126 77.8710941,12.6070643 77.8869028,13.6822483 C77.9466794,17.7578134 77.9108628,21.8348616 77.9108628,25.9114154 L77.9108628,25.9114154 Z" id="Fill-2" fill="#DB4646" sketch:type="MSShapeGroup"></path>
                <path d="M50.3511842,22.7071877 C50.3511842,26.4540184 50.3430328,30.2008491 50.3556304,33.9476799 C50.3598296,35.2690439 50.2630013,36.5713759 49.893967,37.8470137 C48.8431826,41.4766865 45.8054423,43.6020903 42.0088845,43.3556631 C38.0940085,43.1015737 35.4215974,40.7487746 34.7756638,37.0093589 C34.5787961,35.8699111 34.5125972,34.7260142 34.5130912,33.5722306 C34.5185255,25.7903704 34.5153143,18.0085102 34.5163024,10.22665 C34.5165494,8.56295732 34.5227246,8.54788002 36.1413872,8.5528234 C38.9800366,8.5614743 38.7152409,8.25869261 38.717217,11.1377139 C38.7224043,18.878297 38.7258624,26.6191271 38.7105477,34.3597101 C38.7083246,35.405481 38.8540611,36.4092332 39.2477965,37.3704724 C39.7788699,38.6671195 41.0485061,39.4951348 42.4406596,39.4892027 C43.8493628,39.4840122 45.0770071,38.6636592 45.6251243,37.3546536 C46.0791304,36.2705716 46.161879,35.1313709 46.160644,33.9696779 C46.1510106,26.0232033 46.1811459,18.0762344 46.1292736,10.130007 C46.1211222,8.86549184 46.523009,8.49127839 47.7543584,8.52687068 C50.7525769,8.61313257 50.3341404,8.30614901 50.346985,11.0961896 C50.3645228,14.9663575 50.3511842,18.8367726 50.3511842,22.7071877" id="Fill-3" fill="#3E3F3C" sketch:type="MSShapeGroup"></path>
                <path d="M54.1275049,26.0475561 C54.1275049,22.9606659 54.0869952,19.8730341 54.1378794,16.7868854 C54.2028433,12.8391065 56.2490817,9.71390513 59.4555304,8.88638423 C64.7141458,7.52918076 69.51505,9.96453422 69.9058213,16.6306748 C69.9589286,17.5335821 69.5970576,17.9750255 68.6139542,17.9883726 C66.07567,18.0232234 66.076164,18.0556025 65.531999,15.5930605 C65.0668774,13.4864414 63.9192647,12.4537705 62.0323483,12.4433894 C60.1508662,12.4330083 59.0464803,13.4333001 58.5084906,15.5668606 C58.3449693,16.2161728 58.3000134,16.8622719 58.3000134,17.5214709 C58.3010014,23.2021497 58.3054476,28.8825814 58.2948261,34.5632602 C58.2933441,35.4780317 58.4022759,36.3643787 58.7115335,37.2260089 C59.2715073,38.7858907 60.4974225,39.6976962 62.0323483,39.6895396 C63.5502304,39.681383 64.6914208,38.8452112 65.2921514,37.3172142 C65.6283332,36.4610217 65.7318308,35.5680011 65.7340539,34.659656 C65.7399822,32.5191749 65.7098468,30.3779522 65.7508507,28.2382125 C65.7664123,27.4235444 65.5754729,26.9736973 64.6610385,27.0908553 C63.7690821,27.2052944 63.4163505,26.8095773 63.4348763,25.8876379 C63.4998402,22.6208089 63.1187023,23.2046214 66.0704828,23.1537046 C66.9340329,23.1386273 67.8010413,23.1972063 68.6611333,23.1391217 C69.6521411,23.0723861 69.9530004,23.5172898 69.943614,24.4510933 C69.9073033,28.1141338 70.0177172,31.7816234 69.8781561,35.4402149 C69.7558857,38.6395669 68.6759539,41.5101845 65.4848199,42.8503333 C62.45449,44.1230051 59.4397217,43.895857 56.8046093,41.7123685 C54.8149363,40.0637531 54.2290264,37.7383897 54.151218,35.3079796 C54.0524136,32.2240554 54.1275049,29.1346935 54.1275049,26.0475561" id="Fill-4" fill="#3E3F3C" sketch:type="MSShapeGroup"></path>
                <path d="M101.811759,25.8603804 C101.811759,20.5914846 101.837201,15.3223417 101.790763,10.0539403 C101.780883,8.9587357 102.054324,8.50196789 103.231084,8.52544892 C106.43852,8.58897128 109.648427,8.57488266 112.856605,8.5311338 C113.856011,8.51753952 114.243324,8.81859103 114.208496,9.87054113 C114.114385,12.7100155 114.559004,12.3434642 111.701829,12.3666981 C110.179995,12.3793037 108.657667,12.3854829 107.135832,12.3627434 C106.308099,12.3506321 105.983032,12.6655251 105.997359,13.5348175 C106.04355,16.2917375 106.040092,19.0506348 105.999088,21.8080491 C105.98649,22.6570737 106.248075,22.9830892 107.122494,22.9620799 C109.095864,22.9143763 111.071704,22.9746855 113.045568,22.9351385 C113.897756,22.9180839 114.220846,23.2250674 114.19985,24.0859561 C114.126241,27.1345352 114.641753,26.8952758 111.476802,26.8972532 C110.036976,26.8979947 108.595667,26.9345757 107.157816,26.8799514 C106.339469,26.8490553 105.983032,27.0415997 105.995877,27.9571127 C106.04355,31.3729845 106.034164,34.7900921 106.000817,38.2062111 C105.992913,39.0231038 106.293031,39.2875743 107.082972,39.2727442 C109.015585,39.2361632 110.950175,39.2922705 112.882541,39.2470386 C113.79994,39.2257821 114.237643,39.467266 114.205779,40.4907916 C114.113891,43.4165279 114.642247,43.2106363 111.510149,43.2106363 C108.754001,43.2108835 105.997359,43.1799874 103.241952,43.2259608 C102.182769,43.2437569 101.787058,42.8707793 101.794468,41.7904048 C101.831767,36.4807262 101.811512,31.1705533 101.811759,25.8603804" id="Fill-5" fill="#3E3F3C" sketch:type="MSShapeGroup"></path>
                <path d="M122.526464,27.8934997 C122.526464,23.2410428 122.501022,18.5883387 122.544496,13.9363761 C122.555364,12.7806151 122.204609,12.2494495 120.989068,12.3505415 C120.089948,12.4254337 119.177984,12.3305209 118.274912,12.3750112 C117.40988,12.4177714 117.11322,12.0366373 117.119642,11.2046673 C117.143355,8.12889969 116.930184,8.5619393 119.623839,8.54785068 C123.244525,8.52881869 126.865952,8.57355623 130.486144,8.52511116 C131.578673,8.51028103 132.03342,8.80762501 131.998097,9.986867 C131.916584,12.6970721 132.160878,12.3344756 129.586036,12.3668547 C126.474439,12.4056602 126.589052,11.8398909 126.591769,15.3286775 C126.598686,24.0159168 126.594487,32.7029088 126.593499,41.3903952 C126.593499,43.2038722 126.591028,43.1927496 124.847872,43.2093099 C122.090984,43.2360041 122.538073,43.1428215 122.530663,40.8624428 C122.516336,36.5394618 122.526464,32.2164808 122.526464,27.8934997" id="Fill-6" fill="#3E3F3C" sketch:type="MSShapeGroup"></path>
                <path d="M93.2974051,25.773979 C93.2974051,20.5505623 93.3263054,15.3268984 93.2746801,10.1037289 C93.2633176,8.94747359 93.5698581,8.48848127 94.789845,8.52679242 C97.7670676,8.61997503 97.4973317,8.2044844 97.4988138,11.2518276 C97.503013,21.2876194 97.5007899,31.3231641 97.4998018,41.3587087 C97.4993078,43.1749045 97.4602801,43.2104968 95.6106623,43.212227 C93.2971581,43.2144515 93.2971581,43.2144515 93.2971581,40.9508803 C93.2974051,35.8915836 93.2974051,30.8330285 93.2974051,25.773979" id="Fill-7" fill="#3E3F3C" sketch:type="MSShapeGroup"></path>
                <path d="M-0.403040551,2.52236227 L-0.403040551,49.7740004 C-0.403040551,51.1670626 0.727135577,52.2963627 2.12013728,52.2963627 L74.9000052,52.2963627 C76.2935178,52.2963627 77.423183,51.1676949 77.423183,49.7740004 L77.423183,2.52236227 C77.423183,1.12930006 76.2930069,0 74.9000052,0 L2.12013728,0 C0.726624645,0 -0.403040551,1.12866776 -0.403040551,2.52236227 Z M74.9000052,3.96731027 C74.1055641,3.96731027 73.4598105,3.3218557 73.4598105,2.52236227 L73.4598105,49.7740004 C73.4598105,48.9750677 74.1061466,48.3290524 74.9000052,48.3290524 L2.12013728,48.3290524 C2.91457837,48.3290524 3.56033195,48.974507 3.56033195,49.7740004 L3.56033195,2.52236227 C3.56033195,3.32129503 2.91399591,3.96731027 2.12013728,3.96731027 L74.9000052,3.96731027 Z" id="Rectangle-1" fill="#DB4646" sketch:type="MSShapeGroup"></path>
            </g>
        </g>
    </g>
</svg>