<?xml version="1.0" encoding="utf-8"?>
<!-- Generator: Adobe Illustrator 18.1.1, SVG Export Plug-In . SVG Version: 6.00 Build 0)  -->
<svg version="1.1" id="Layer_1" xmlns:sketch="http://www.bohemiancoding.com/sketch/ns"
	 xmlns="http://www.w3.org/2000/svg" xmlns:xlink="http://www.w3.org/1999/xlink" x="0px" y="0px" viewBox="317 -8 730 112"
	 enable-background="new 317 -8 730 112" xml:space="preserve">
<title>Group</title>
<desc>Created with Sketch.</desc>
<g id="Imported-Layers" sketch:type="MSShapeGroup">
	<path id="Fill-1" fill="#DF4141" d="M360.8,1.5c0,5.2-4.1,9.1-9.4,9.1c-5.4,0-9.5-3.9-9.5-9.1c0-5.1,4.2-9.2,9.5-9.2
		C356.6-7.7,360.8-3.6,360.8,1.5"/>
	<path id="Fill-2" fill="#DF4141" d="M384.7,36.5c-5.7-7.2-11.5-14.3-17.5-21.2c-0.9-1-2.2-1.7-3.6-2c-0.1-0.1-0.3-0.1-0.4-0.1
		c-0.5-0.1-21.4-0.2-21.9-0.2c-1.9-0.1-4,0.5-5.8,2.7c-6,7-11.8,14.1-17.5,21.2c-1.2,1.5-1.2,3.6,0.9,5.2c1.9,1.4,3.7,0.7,5.3-0.4
		c0.6-0.4,0.9-1.1,1.4-1.6c2.6-3.2,5.2-6.4,7.9-9.5c-1.4,8-1.9,16.4-1.1,20c1.4,5.9,3.1,10.5,8.5,13.1c0,9.9,0,24.2,0,34.1
		c0,1.1,0.1,2.2,0.5,3.2c0.8,2,3,3.1,5.2,2.8c2.5-0.4,4.2-2.1,4.4-4.4c0-0.5,0-1.1,0-1.6c0-9.1,0-22.4,0-31.5c0.6,0,1.3,0,1.9,0
		c0,5.7,0,15.6,0,21.3c0,3.7,0,7.3,0,11c0,2.8,1.6,4.7,4.2,5.2c3.1,0.6,5.8-1.4,6-4.4c0-0.6,0-1.1,0-1.7c0-10,0-23.4,0-33.4
		c7-4.1,8.9-8.1,8.7-16c0,0.1,0,0,0-0.1c0-1.2-0.9-9.4-2.5-17.6c2.6,3.1,5.1,6.2,7.7,9.3c0.5,0.5,0.8,1.2,1.4,1.6
		c1.5,1.1,3.3,1.8,5.3,0.4C385.9,40.1,385.9,37.9,384.7,36.5"/>
</g>
<g id="Imported-Layers_1_" transform="translate(683.000000, 0.000000)" sketch:type="MSShapeGroup">
	<path id="Fill-1_1_" fill="#DF4141" d="M353,14c4.9,0.8,9,4.2,10,8.8c0.1,0.5,0.3,1.1,0.4,1.6v29c-0.1,0.3-0.2,0.5-0.3,0.8
		c-0.5,1.6-1.9,2.6-3.6,2.6c-1.7,0-3.2-1.1-3.6-2.8c-0.1-0.6-0.2-1.2-0.2-1.8c0-7.8,0-15.6,0-23.5v-1c-1.9-0.3-2.4-0.3-2.4,1.3
		c0,22.4,0,44.8,0,67.1c0,0.6,0,1.1,0,1.7c-0.2,3-2.9,5-6,4.4c-2.6-0.5-4.2-2.4-4.2-5.2c0-3.7,0-7.3,0-11c0-9.6,0-19.2,0-28.7
		c0-0.7-0.2-0.9-1-1c-1,0-0.9,0.5-0.9,1.1c0,12.9,0,25.8,0,38.8c0,0.5,0,1.1,0,1.6c-0.2,2.3-1.9,4-4.4,4.4c-2.2,0.3-4.5-0.8-5.2-2.8
		c-0.4-1-0.5-2.2-0.5-3.2c0-22.4,0-44.9,0-67.3c0-0.3,0.1-0.6,0-0.9c-0.1-0.2-0.3-0.4-0.5-0.5c-1.2-0.2-1.4,0-1.4,1.1
		c0,7.7,0,15.4,0,23.1c0,0.5,0,1,0,1.5c-0.1,1.8-1.5,3.1-3.4,3.3c-1.7,0.2-3.4-0.9-3.9-2.6c-0.1-0.3-0.2-0.5-0.3-0.8V24.2
		c0.1-0.2,0.2-0.4,0.2-0.6c0.7-5.2,5.3-10.1,11.7-9.8C334.3,13.9,351.9,13.8,353,14"/>
	<path id="Fill-2_1_" fill="#DF4141" d="M351.9,1.5c0,5.2-4.1,9.1-9.4,9.1c-5.4,0-9.5-3.9-9.5-9.1c0-5.1,4.2-9.2,9.5-9.2
		C347.7-7.7,351.9-3.6,351.9,1.5"/>
	<path id="Fill-3" fill="#DF4141" d="M317-8"/>
</g>
<path id="Path-75" sketch:type="MSShapeGroup" fill="none" stroke="#000000" stroke-width="5" d="M408,45h566"/>
<g>
	<path id="Rectangle-41_1_" sketch:type="MSShapeGroup" fill="#DB4646" d="M405,36h15c1.1,0,2,0.9,2,2v15c0,1.1-0.9,2-2,2h-15
		c-1.1,0-2-0.9-2-2V38C403,36.9,403.9,36,405,36z"/>
	<path fill="#DB4646" d="M420,57.5h-15c-2.5,0-4.5-2-4.5-4.5V38c0-2.5,2-4.5,4.5-4.5h15c2.5,0,4.5,2,4.5,4.5v15
		C424.5,55.5,422.5,57.5,420,57.5z M405.5,52.5h14v-14h-14V52.5z"/>
</g>
<g>
	<path id="Rectangle-41-Copy_1_" sketch:type="MSShapeGroup" fill="#FFFFFF" d="M965,36h15c1.1,0,2,0.9,2,2v15c0,1.1-0.9,2-2,2h-15
		c-1.1,0-2-0.9-2-2V38C963,36.9,963.9,36,965,36z"/>
	<path fill="#DB4646" d="M980,57.5h-15c-2.5,0-4.5-2-4.5-4.5V38c0-2.5,2-4.5,4.5-4.5h15c2.5,0,4.5,2,4.5,4.5v15
		C984.5,55.5,982.5,57.5,980,57.5z M965.5,52.5h14v-14h-14V52.5z"/>
</g>
<g enable-background="new    ">
	<path fill="#3E3F3C" d="M578.2,6.9c0.9,0.8,1.4,1.9,1.4,3.4c0,1.5-0.5,2.6-1.4,3.4c-0.9,0.8-2.2,1.2-3.8,1.2H572V20h-2.6V5.7h5
		C576.1,5.7,577.3,6.1,578.2,6.9z M574.5,12.5c0.8,0,1.4-0.2,1.8-0.6c0.4-0.4,0.6-1,0.6-1.6c0-0.7-0.2-1.2-0.6-1.6
		c-0.4-0.4-1-0.6-1.8-0.6H572v4.6H574.5z"/>
	<path fill="#3E3F3C" d="M587.8,5.4c1,0,1.8,0.2,2.6,0.5s1.5,0.8,2,1.4c1.2,1.3,1.8,3.1,1.8,5.5c0,2.4-0.6,4.3-1.8,5.6
		c-1.1,1.2-2.7,1.8-4.7,1.8c-2,0-3.5-0.6-4.7-1.9c-1.2-1.3-1.8-3.2-1.8-5.6c0-2.4,0.6-4.3,1.8-5.6C584.2,6,585.8,5.4,587.8,5.4z
		 M591.5,12.9c0-1.6-0.3-2.9-1-3.8c-0.7-0.9-1.6-1.3-2.8-1.3s-2.1,0.4-2.8,1.3c-0.7,0.9-1,2.1-1,3.8c0,1.6,0.3,2.9,1,3.8
		c0.7,0.9,1.6,1.3,2.8,1.3s2.1-0.4,2.8-1.3C591.2,15.8,591.5,14.5,591.5,12.9z"/>
	<path fill="#3E3F3C" d="M607.9,10.1c0,1-0.3,1.9-0.9,2.6s-1.4,1.2-2.5,1.5l3.8,5.8H605l-3.1-5.6h-2V20h-2.6V5.7h5.3
		c1.7,0,3,0.4,3.9,1.2C607.4,7.7,607.9,8.8,607.9,10.1z M602.3,12.7c1,0,1.7-0.2,2.2-0.6c0.5-0.4,0.7-1,0.7-1.7
		c0-0.7-0.2-1.3-0.7-1.7s-1.1-0.6-2-0.6h-2.7v4.7H602.3z"/>
	<path fill="#3E3F3C" d="M609.6,5.7H621V8h-4.4v12H614V8h-4.4V5.7z"/>
	<path fill="#3E3F3C" d="M623.2,5.7h2.6V20h-2.6V5.7z"/>
	<path fill="#3E3F3C" d="M635.3,5.4c1,0,1.8,0.2,2.6,0.5s1.5,0.8,2,1.4c1.2,1.3,1.8,3.1,1.8,5.5c0,2.4-0.6,4.3-1.8,5.6
		c-1.1,1.2-2.7,1.8-4.7,1.8c-2,0-3.5-0.6-4.7-1.9c-1.2-1.3-1.8-3.2-1.8-5.6c0-2.4,0.6-4.3,1.8-5.6C631.8,6,633.3,5.4,635.3,5.4z
		 M639.1,12.9c0-1.6-0.3-2.9-1-3.8c-0.7-0.9-1.6-1.3-2.8-1.3c-1.2,0-2.1,0.4-2.8,1.3c-0.7,0.9-1,2.1-1,3.8c0,1.6,0.3,2.9,1,3.8
		c0.7,0.9,1.6,1.3,2.8,1.3c1.2,0,2.1-0.4,2.8-1.3C638.8,15.8,639.1,14.5,639.1,12.9z"/>
	<path fill="#3E3F3C" d="M647.7,5.7l6.3,10.1V5.7h2.6V20h-2.6l-6.5-10.5V20h-2.6V5.7H647.7z"/>
	<path fill="#3E3F3C" d="M671.4,5.4c0.9,0,1.6,0.1,2.3,0.3c0.6,0.2,1.2,0.5,1.7,0.9c0.9,0.7,1.5,1.8,1.8,3.1l-2.8,0.5
		c-0.2-0.7-0.6-1.4-1.1-1.8c-0.5-0.5-1.1-0.7-1.8-0.7c-1,0-1.8,0.4-2.4,1.3c-0.7,0.9-1,2.2-1,3.8c0,1.6,0.3,2.9,0.9,3.8
		s1.4,1.4,2.4,1.4c1,0,1.8-0.2,2.3-0.7c0.5-0.5,0.8-1.1,0.8-1.9h2.8c0,1.6-0.5,2.8-1.5,3.7c-1,0.9-2.4,1.3-4.2,1.3
		c-1.9,0-3.4-0.7-4.5-2c-1.1-1.3-1.7-3.2-1.7-5.5c0-2.3,0.6-4.2,1.7-5.5C668.1,6.1,669.5,5.4,671.4,5.4z"/>
	<path fill="#3E3F3C" d="M685.7,5.4c1,0,1.8,0.2,2.6,0.5s1.5,0.8,2,1.4c1.2,1.3,1.8,3.1,1.8,5.5c0,2.4-0.6,4.3-1.8,5.6
		c-1.1,1.2-2.7,1.8-4.7,1.8c-2,0-3.5-0.6-4.7-1.9c-1.2-1.3-1.8-3.2-1.8-5.6c0-2.4,0.6-4.3,1.8-5.6C682.1,6,683.7,5.4,685.7,5.4z
		 M689.4,12.9c0-1.6-0.3-2.9-1-3.8c-0.7-0.9-1.6-1.3-2.8-1.3c-1.2,0-2.1,0.4-2.8,1.3c-0.7,0.9-1,2.1-1,3.8c0,1.6,0.3,2.9,1,3.8
		c0.7,0.9,1.6,1.3,2.8,1.3c1.2,0,2.1-0.4,2.8-1.3C689.1,15.8,689.4,14.5,689.4,12.9z"/>
	<path fill="#3E3F3C" d="M698,5.7l6.3,10.1V5.7h2.6V20h-2.6l-6.5-10.5V20h-2.6V5.7H698z"/>
	<path fill="#3E3F3C" d="M709.1,5.7h11.4V8h-4.4v12h-2.6V8h-4.4V5.7z"/>
	<path fill="#3E3F3C" d="M733.3,10.1c0,1-0.3,1.9-0.9,2.6s-1.4,1.2-2.5,1.5l3.8,5.8h-3.4l-3.1-5.6h-2V20h-2.6V5.7h5.3
		c1.7,0,3,0.4,3.9,1.2C732.8,7.7,733.3,8.8,733.3,10.1z M727.7,12.7c1,0,1.7-0.2,2.2-0.6c0.5-0.4,0.7-1,0.7-1.7
		c0-0.7-0.2-1.3-0.7-1.7c-0.4-0.4-1.1-0.6-2-0.6h-2.7v4.7H727.7z"/>
	<path fill="#3E3F3C" d="M742.3,5.4c1,0,1.8,0.2,2.6,0.5s1.5,0.8,2,1.4c1.2,1.3,1.8,3.1,1.8,5.5c0,2.4-0.6,4.3-1.8,5.6
		c-1.1,1.2-2.7,1.8-4.7,1.8c-2,0-3.5-0.6-4.7-1.9c-1.2-1.3-1.8-3.2-1.8-5.6c0-2.4,0.6-4.3,1.8-5.6C738.8,6,740.3,5.4,742.3,5.4z
		 M746.1,12.9c0-1.6-0.3-2.9-1-3.8c-0.7-0.9-1.6-1.3-2.8-1.3c-1.2,0-2.1,0.4-2.8,1.3c-0.7,0.9-1,2.1-1,3.8c0,1.6,0.3,2.9,1,3.8
		c0.7,0.9,1.6,1.3,2.8,1.3c1.2,0,2.1-0.4,2.8-1.3C745.8,15.8,746.1,14.5,746.1,12.9z"/>
	<path fill="#3E3F3C" d="M754.5,17.7h5.9V20h-8.5V5.7h2.6V17.7z"/>
	<path fill="#3E3F3C" d="M773.5,9.2v4.3h4.3v2.3h-4.3V20h-2.6v-4.3h-4.3v-2.3h4.3V9.2H773.5z"/>
	<path fill="#3E3F3C" d="M783.9,5.7h11.4V8h-4.4v12h-2.6V8h-4.4V5.7z"/>
	<path fill="#3E3F3C" d="M797.5,5.7h2.6V20h-2.6V5.7z"/>
	<path fill="#3E3F3C" d="M807.9,5.7l3.9,8.5l3.9-8.5h3.6V20h-2.6V9.2l-4,9.3H811l-4.2-9.6V20h-2.6V5.7H807.9z"/>
	<path fill="#3E3F3C" d="M823.4,5.7h9.2V8H826v3.8h6.2V14H826v3.8h6.6V20h-9.2V5.7z"/>
</g>
<g enable-background="new    ">
	<path fill="#3E3F3C" d="M497.6,87.5h6.2V89h-7.9V75.2h1.7V87.5z"/>
	<path fill="#3E3F3C" d="M511.1,74.9c1.8,0,3.2,0.6,4.3,1.8c1.1,1.2,1.7,3,1.7,5.3c0,2.3-0.5,4.1-1.6,5.3s-2.6,1.8-4.4,1.8
		s-3.3-0.6-4.3-1.8c-1.1-1.2-1.6-3-1.6-5.3c0-2.3,0.5-4.1,1.6-5.3C507.8,75.5,509.2,74.9,511.1,74.9z M511.1,76.5
		c-1.3,0-2.3,0.5-3.1,1.5c-0.7,1-1.1,2.4-1.1,4.2s0.4,3.2,1.1,4.1s1.8,1.4,3.1,1.4s2.3-0.5,3.1-1.4s1.1-2.3,1.1-4.1
		s-0.4-3.2-1.1-4.2C513.4,77,512.3,76.5,511.1,76.5z"/>
	<path fill="#3E3F3C" d="M527.8,78.5c-0.2-1.3-1.2-2-3-2c-0.9,0-1.6,0.2-2.1,0.6s-0.7,0.9-0.7,1.5c0,0.6,0.2,1,0.5,1.3
		c0.3,0.3,0.8,0.6,1.5,0.8l2.9,1c1,0.3,1.8,0.8,2.3,1.4s0.9,1.4,0.9,2.5c0,1.1-0.5,2-1.4,2.7c-0.9,0.7-2.1,1.1-3.7,1.1
		s-2.8-0.4-3.8-1.2c-1-0.8-1.5-1.9-1.5-3.2h1.7c0,0.9,0.3,1.6,1,2.1c0.6,0.5,1.5,0.7,2.5,0.7s1.8-0.2,2.4-0.7c0.6-0.4,0.9-1,0.9-1.6
		s-0.2-1.1-0.5-1.4c-0.4-0.4-0.9-0.6-1.6-0.9l-2.4-0.9c-1.1-0.4-2-0.8-2.6-1.4c-0.6-0.5-0.9-1.3-0.9-2.3s0.4-1.9,1.2-2.6
		c0.8-0.7,2-1,3.5-1c1.5,0,2.6,0.3,3.4,1c0.8,0.7,1.2,1.5,1.4,2.6H527.8z"/>
	<path fill="#3E3F3C" d="M533.7,75.2h8.5v1.5h-6.8v4.6h6.4v1.5h-6.4v4.7h6.8V89h-8.5V75.2z"/>
	<path fill="#3E3F3C" d="M554.4,75.2h2.1l4.6,13.8h-1.8l-1.2-3.5h-5.5l-1.2,3.5h-1.8L554.4,75.2z M553.1,84.1h4.6l-2.3-6.8
		L553.1,84.1z"/>
	<path fill="#3E3F3C" d="M566,75.2l6.9,11.1V75.2h1.7V89h-1.9l-7-11.3V89h-1.8V75.2H566z"/>
	<path fill="#3E3F3C" d="M587.3,75.2h2.1l4.6,13.8h-1.8l-1.2-3.5h-5.5l-1.2,3.5h-1.8L587.3,75.2z M586.1,84.1h4.6l-2.3-6.8
		L586.1,84.1z"/>
	<path fill="#3E3F3C" d="M596.3,75.2l4,11.6l4-11.6h1.8L601.1,89h-1.8l-4.9-13.8H596.3z"/>
	<path fill="#3E3F3C" d="M608.6,75.2h8.5v1.5h-6.8v4.6h6.4v1.5h-6.4v4.7h6.8V89h-8.5V75.2z"/>
	<path fill="#3E3F3C" d="M630.7,79.1c0,1.1-0.3,2.1-0.9,2.8c-0.6,0.7-1.5,1.2-2.7,1.4l4,5.7h-2.2l-3.6-5.7h-2.4V89H621V75.2h4.8
		c1.6,0,2.7,0.4,3.6,1.1C630.3,77,630.7,78,630.7,79.1z M625.7,82.1c1,0,1.8-0.3,2.4-0.8c0.5-0.5,0.8-1.2,0.8-2c0-0.8-0.3-1.5-0.8-2
		c-0.5-0.5-1.3-0.7-2.3-0.7h-3.1v5.5H625.7z"/>
	<path fill="#3E3F3C" d="M637.6,75.2h2.1l4.6,13.8h-1.8l-1.2-3.5h-5.5l-1.2,3.5h-1.8L637.6,75.2z M636.3,84.1h4.6l-2.3-6.8
		L636.3,84.1z"/>
	<path fill="#3E3F3C" d="M655.7,86.6c-0.6,1.7-1.8,2.6-3.6,2.6c-1.8,0-3.2-0.6-4.4-1.9c-1.1-1.3-1.7-3-1.7-5.2
		c0-2.2,0.6-3.9,1.9-5.2c1.2-1.3,2.8-1.9,4.6-1.9c1.1,0,2,0.2,2.8,0.7c0.8,0.4,1.5,1.1,2.1,2.1l-1.7,0.6c-1-1.2-2.1-1.8-3.3-1.8
		s-2.4,0.5-3.2,1.6c-0.9,1-1.3,2.4-1.3,4.1c0,1.7,0.4,3,1.1,4c0.8,1,1.8,1.5,3.1,1.5c1.1,0,1.9-0.4,2.6-1.1c0.6-0.7,1-1.7,1-3.1v0
		l-3.5-0.1v-1.1h5.2V89h-1.4L655.7,86.6z"/>
	<path fill="#3E3F3C" d="M661.3,75.2h8.5v1.5h-6.8v4.6h6.4v1.5h-6.4v4.7h6.8V89h-8.5V75.2z"/>
	<path fill="#3E3F3C" d="M683.8,74.9c1.8,0,3.2,0.6,4.3,1.8s1.7,3,1.7,5.3c0,2.3-0.6,4.1-1.7,5.3s-2.6,1.8-4.4,1.8
		c-1.8,0-3.3-0.6-4.3-1.8s-1.6-3-1.6-5.3c0-2.3,0.5-4.1,1.6-5.3S682,74.9,683.8,74.9z M683.8,76.5c-1.3,0-2.3,0.5-3.1,1.5
		c-0.7,1-1.1,2.4-1.1,4.2s0.4,3.2,1.1,4.1s1.8,1.4,3.1,1.4c1.3,0,2.3-0.5,3.1-1.4c0.8-0.9,1.1-2.3,1.1-4.1s-0.4-3.2-1.1-4.2
		C686.2,77,685.1,76.5,683.8,76.5z"/>
	<path fill="#3E3F3C" d="M693.2,75.2h8.4v1.5h-6.7v4.6h6.2v1.5h-6.2V89h-1.7V75.2z"/>
</g>
<g enable-background="new    ">
	<path fill="#3E3F3C" d="M708.6,75.8c1.1-0.2,2.1-0.5,2.9-1.2h2V89h-2.6V77.7c-0.7,0.4-1.5,0.5-2.3,0.5V75.8z"/>
	<path fill="#3E3F3C" d="M731.9,75.9c0.9,0.8,1.4,1.9,1.4,3.4c0,1.5-0.5,2.6-1.4,3.4c-0.9,0.8-2.2,1.2-3.8,1.2h-2.4V89h-2.6V74.7h5
		C729.8,74.7,731,75.1,731.9,75.9z M728.1,81.5c0.8,0,1.4-0.2,1.8-0.6c0.4-0.4,0.6-1,0.6-1.6c0-0.7-0.2-1.2-0.6-1.6
		c-0.4-0.4-1-0.6-1.8-0.6h-2.4v4.6H728.1z"/>
	<path fill="#3E3F3C" d="M741.4,74.4c1,0,1.8,0.2,2.6,0.5s1.5,0.8,2,1.4c1.2,1.3,1.8,3.1,1.8,5.5c0,2.4-0.6,4.3-1.8,5.6
		c-1.1,1.2-2.7,1.8-4.7,1.8c-2,0-3.5-0.6-4.7-1.9c-1.2-1.3-1.8-3.2-1.8-5.6c0-2.4,0.6-4.3,1.8-5.6C737.9,75,739.4,74.4,741.4,74.4z
		 M745.2,81.9c0-1.6-0.3-2.9-1-3.8c-0.7-0.9-1.6-1.3-2.8-1.3c-1.2,0-2.1,0.4-2.8,1.3c-0.7,0.9-1,2.1-1,3.8c0,1.6,0.3,2.9,1,3.8
		c0.7,0.9,1.6,1.3,2.8,1.3c1.2,0,2.1-0.4,2.8-1.3C744.9,84.8,745.2,83.5,745.2,81.9z"/>
	<path fill="#3E3F3C" d="M753.4,74.7v8.9c0,1.2,0.3,2,0.9,2.5c0.6,0.5,1.4,0.8,2.3,0.8c0.9,0,1.7-0.3,2.3-0.8
		c0.6-0.5,0.9-1.4,0.9-2.5v-8.9h2.6v8.9c0,1.8-0.5,3.2-1.5,4.2s-2.4,1.5-4.3,1.5c-1.8,0-3.3-0.5-4.3-1.5s-1.5-2.4-1.5-4.2v-8.9
		H753.4z"/>
	<path fill="#3E3F3C" d="M769,74.7l6.3,10.1V74.7h2.6V89h-2.6l-6.5-10.5V89h-2.6V74.7H769z"/>
	<path fill="#3E3F3C" d="M786.6,74.7c2.2,0,3.9,0.6,5.3,1.9c1.3,1.3,2,3,2,5.2c0,2.2-0.7,3.9-2,5.2c-1.3,1.3-3.1,1.9-5.3,1.9h-4.6
		V74.7H786.6z M784.5,86.6h2c1.3,0,2.4-0.5,3.3-1.4c0.8-0.9,1.2-2,1.2-3.4c0-1.4-0.4-2.6-1.2-3.5c-0.8-0.9-1.9-1.3-3.3-1.3h-2V86.6z
		"/>
	<path fill="#3E3F3C" d="M811.3,75.9c0.9,0.8,1.4,1.9,1.4,3.4c0,1.5-0.5,2.6-1.4,3.4c-0.9,0.8-2.2,1.2-3.8,1.2h-2.4V89h-2.6V74.7h5
		C809.2,74.7,810.4,75.1,811.3,75.9z M807.6,81.5c0.8,0,1.4-0.2,1.8-0.6c0.4-0.4,0.6-1,0.6-1.6c0-0.7-0.2-1.2-0.6-1.6
		c-0.4-0.4-1-0.6-1.8-0.6h-2.4v4.6H807.6z"/>
	<path fill="#3E3F3C" d="M815.4,74.7h9.2V77H818v3.8h6.2V83H818v3.8h6.6V89h-9.2V74.7z"/>
	<path fill="#3E3F3C" d="M838.9,79.1c0,1-0.3,1.9-0.9,2.6s-1.4,1.2-2.5,1.5l3.8,5.8H836l-3.1-5.6h-2V89h-2.6V74.7h5.3
		c1.7,0,3,0.4,3.9,1.2C838.4,76.7,838.9,77.8,838.9,79.1z M833.3,81.7c1,0,1.7-0.2,2.2-0.6c0.5-0.4,0.7-1,0.7-1.7
		c0-0.7-0.2-1.3-0.7-1.7c-0.4-0.4-1.1-0.6-2-0.6h-2.7v4.7H833.3z"/>
	<path fill="#3E3F3C" d="M849.3,74.7l3.1,10.8l3.1-9.9h1.8l3.2,9.9l3.3-10.9h2.9L861.9,89h-2.7l-2.7-8.1l-2.7,8.1h-2.7l-4.7-14.3
		H849.3z"/>
	<path fill="#3E3F3C" d="M869.2,74.7h9.2V77h-6.6v3.8h6.2V83h-6.2v3.8h6.6V89h-9.2V74.7z"/>
	<path fill="#3E3F3C" d="M882.1,74.7h9.2V77h-6.6v3.8h6.2V83h-6.2v3.8h6.6V89h-9.2V74.7z"/>
	<path fill="#3E3F3C" d="M897.7,74.7v5.9l5.6-5.9h3.6l-6.3,6.4l6.7,7.9h-3.4l-5.1-6l-1.2,1.2V89H895V74.7H897.7z"/>
</g>
</svg>
